<mxfile host="app.diagrams.net" modified="2022-10-28T15:08:36.481Z" agent="5.0 (Windows NT 10.0; Win64; x64) AppleWebKit/537.36 (KHTML, like Gecko) Chrome/107.0.0.0 Safari/537.36" etag="5O9kz6TTb8MsBV-i2ch6" version="20.5.1" type="github">
  <diagram id="32U8eM802ad70G1T83tJ" name="Page-1">
    <mxGraphModel dx="1473" dy="796" grid="1" gridSize="10" guides="1" tooltips="1" connect="1" arrows="1" fold="1" page="1" pageScale="1" pageWidth="850" pageHeight="1100" math="0" shadow="0">
      <root>
        <mxCell id="0" />
        <mxCell id="1" parent="0" />
        <mxCell id="GUVT5bT9iIzlpzMXZ2RR-25" value="Inbound" parent="0" />
        <mxCell id="GUVT5bT9iIzlpzMXZ2RR-27" value="" style="edgeStyle=orthogonalEdgeStyle;rounded=0;orthogonalLoop=1;jettySize=auto;html=1;" edge="1" parent="GUVT5bT9iIzlpzMXZ2RR-25" source="GUVT5bT9iIzlpzMXZ2RR-29" target="GUVT5bT9iIzlpzMXZ2RR-34">
          <mxGeometry relative="1" as="geometry" />
        </mxCell>
        <mxCell id="GUVT5bT9iIzlpzMXZ2RR-28" value="Enqueue" style="edgeLabel;html=1;align=center;verticalAlign=middle;resizable=0;points=[];" vertex="1" connectable="0" parent="GUVT5bT9iIzlpzMXZ2RR-27">
          <mxGeometry x="-0.2903" y="1" relative="1" as="geometry">
            <mxPoint as="offset" />
          </mxGeometry>
        </mxCell>
        <mxCell id="GUVT5bT9iIzlpzMXZ2RR-29" value="ReadyToDownload" style="rounded=1;whiteSpace=wrap;html=1;" vertex="1" parent="GUVT5bT9iIzlpzMXZ2RR-25">
          <mxGeometry x="91.96" y="40" width="120" height="60" as="geometry" />
        </mxCell>
        <mxCell id="GUVT5bT9iIzlpzMXZ2RR-30" value="" style="edgeStyle=orthogonalEdgeStyle;rounded=0;orthogonalLoop=1;jettySize=auto;html=1;" edge="1" parent="GUVT5bT9iIzlpzMXZ2RR-25" source="GUVT5bT9iIzlpzMXZ2RR-34" target="GUVT5bT9iIzlpzMXZ2RR-39">
          <mxGeometry relative="1" as="geometry" />
        </mxCell>
        <mxCell id="GUVT5bT9iIzlpzMXZ2RR-31" value="Download" style="edgeLabel;html=1;align=center;verticalAlign=middle;resizable=0;points=[];" vertex="1" connectable="0" parent="GUVT5bT9iIzlpzMXZ2RR-30">
          <mxGeometry x="0.2722" y="1" relative="1" as="geometry">
            <mxPoint x="-1" y="-11" as="offset" />
          </mxGeometry>
        </mxCell>
        <mxCell id="GUVT5bT9iIzlpzMXZ2RR-32" style="edgeStyle=orthogonalEdgeStyle;rounded=0;orthogonalLoop=1;jettySize=auto;html=1;entryX=0;entryY=0.25;entryDx=0;entryDy=0;" edge="1" parent="GUVT5bT9iIzlpzMXZ2RR-25" source="GUVT5bT9iIzlpzMXZ2RR-34" target="GUVT5bT9iIzlpzMXZ2RR-45">
          <mxGeometry relative="1" as="geometry" />
        </mxCell>
        <mxCell id="GUVT5bT9iIzlpzMXZ2RR-33" value="Error" style="edgeLabel;html=1;align=center;verticalAlign=middle;resizable=0;points=[];" vertex="1" connectable="0" parent="GUVT5bT9iIzlpzMXZ2RR-32">
          <mxGeometry x="-0.1701" y="-1" relative="1" as="geometry">
            <mxPoint x="-29" y="-22" as="offset" />
          </mxGeometry>
        </mxCell>
        <mxCell id="GUVT5bT9iIzlpzMXZ2RR-34" value="Queued" style="rounded=1;whiteSpace=wrap;html=1;" vertex="1" parent="GUVT5bT9iIzlpzMXZ2RR-25">
          <mxGeometry x="91.96" y="160" width="120" height="60" as="geometry" />
        </mxCell>
        <mxCell id="GUVT5bT9iIzlpzMXZ2RR-35" value="" style="edgeStyle=orthogonalEdgeStyle;rounded=0;orthogonalLoop=1;jettySize=auto;html=1;" edge="1" parent="GUVT5bT9iIzlpzMXZ2RR-25" source="GUVT5bT9iIzlpzMXZ2RR-39" target="GUVT5bT9iIzlpzMXZ2RR-42">
          <mxGeometry relative="1" as="geometry" />
        </mxCell>
        <mxCell id="GUVT5bT9iIzlpzMXZ2RR-36" value="DownloadComplete" style="edgeLabel;html=1;align=center;verticalAlign=middle;resizable=0;points=[];" vertex="1" connectable="0" parent="GUVT5bT9iIzlpzMXZ2RR-35">
          <mxGeometry x="0.2306" y="1" relative="1" as="geometry">
            <mxPoint y="-4" as="offset" />
          </mxGeometry>
        </mxCell>
        <mxCell id="GUVT5bT9iIzlpzMXZ2RR-37" style="edgeStyle=orthogonalEdgeStyle;rounded=0;orthogonalLoop=1;jettySize=auto;html=1;exitX=1;exitY=0.5;exitDx=0;exitDy=0;entryX=0;entryY=0.5;entryDx=0;entryDy=0;" edge="1" parent="GUVT5bT9iIzlpzMXZ2RR-25" source="GUVT5bT9iIzlpzMXZ2RR-39" target="GUVT5bT9iIzlpzMXZ2RR-45">
          <mxGeometry relative="1" as="geometry" />
        </mxCell>
        <mxCell id="GUVT5bT9iIzlpzMXZ2RR-38" value="Error" style="edgeLabel;html=1;align=center;verticalAlign=middle;resizable=0;points=[];" vertex="1" connectable="0" parent="GUVT5bT9iIzlpzMXZ2RR-37">
          <mxGeometry x="-0.1522" y="1" relative="1" as="geometry">
            <mxPoint x="-29" y="-2" as="offset" />
          </mxGeometry>
        </mxCell>
        <mxCell id="GUVT5bT9iIzlpzMXZ2RR-39" value="Downloading" style="rounded=1;whiteSpace=wrap;html=1;" vertex="1" parent="GUVT5bT9iIzlpzMXZ2RR-25">
          <mxGeometry x="91.96" y="270" width="120" height="60" as="geometry" />
        </mxCell>
        <mxCell id="GUVT5bT9iIzlpzMXZ2RR-40" style="edgeStyle=orthogonalEdgeStyle;rounded=0;orthogonalLoop=1;jettySize=auto;html=1;exitX=0;exitY=0.5;exitDx=0;exitDy=0;entryX=0;entryY=0.5;entryDx=0;entryDy=0;" edge="1" parent="GUVT5bT9iIzlpzMXZ2RR-25" source="GUVT5bT9iIzlpzMXZ2RR-42" target="GUVT5bT9iIzlpzMXZ2RR-29">
          <mxGeometry relative="1" as="geometry">
            <mxPoint x="81.96" y="470" as="sourcePoint" />
            <mxPoint x="81.96" y="50" as="targetPoint" />
            <Array as="points">
              <mxPoint x="41.959999999999994" y="400" />
              <mxPoint x="41.959999999999994" y="70" />
            </Array>
          </mxGeometry>
        </mxCell>
        <mxCell id="GUVT5bT9iIzlpzMXZ2RR-41" value="Delete" style="edgeLabel;html=1;align=center;verticalAlign=middle;resizable=0;points=[];" vertex="1" connectable="0" parent="GUVT5bT9iIzlpzMXZ2RR-40">
          <mxGeometry x="-0.1538" y="2" relative="1" as="geometry">
            <mxPoint y="-69" as="offset" />
          </mxGeometry>
        </mxCell>
        <mxCell id="GUVT5bT9iIzlpzMXZ2RR-42" value="Completed" style="rounded=1;whiteSpace=wrap;html=1;" vertex="1" parent="GUVT5bT9iIzlpzMXZ2RR-25">
          <mxGeometry x="91.96" y="370" width="120" height="60" as="geometry" />
        </mxCell>
        <mxCell id="GUVT5bT9iIzlpzMXZ2RR-43" style="edgeStyle=orthogonalEdgeStyle;rounded=0;orthogonalLoop=1;jettySize=auto;html=1;entryX=0.833;entryY=0;entryDx=0;entryDy=0;entryPerimeter=0;" edge="1" parent="GUVT5bT9iIzlpzMXZ2RR-25" source="GUVT5bT9iIzlpzMXZ2RR-45" target="GUVT5bT9iIzlpzMXZ2RR-34">
          <mxGeometry relative="1" as="geometry">
            <mxPoint x="271.96" y="100" as="targetPoint" />
            <Array as="points">
              <mxPoint x="371.96" y="120" />
              <mxPoint x="191.95999999999998" y="120" />
            </Array>
            <mxPoint x="391.96" y="180" as="sourcePoint" />
          </mxGeometry>
        </mxCell>
        <mxCell id="GUVT5bT9iIzlpzMXZ2RR-44" value="TryDownloadAgain" style="edgeLabel;html=1;align=center;verticalAlign=middle;resizable=0;points=[];" vertex="1" connectable="0" parent="GUVT5bT9iIzlpzMXZ2RR-43">
          <mxGeometry x="0.3562" y="1" relative="1" as="geometry">
            <mxPoint x="54" y="-11" as="offset" />
          </mxGeometry>
        </mxCell>
        <mxCell id="GUVT5bT9iIzlpzMXZ2RR-45" value="Error" style="rounded=1;whiteSpace=wrap;html=1;" vertex="1" parent="GUVT5bT9iIzlpzMXZ2RR-25">
          <mxGeometry x="316.96000000000004" y="210" width="120" height="60" as="geometry" />
        </mxCell>
        <mxCell id="GUVT5bT9iIzlpzMXZ2RR-26" value="Outbound" parent="0" />
        <mxCell id="GUVT5bT9iIzlpzMXZ2RR-48" value="Upload" style="edgeStyle=orthogonalEdgeStyle;rounded=0;orthogonalLoop=1;jettySize=auto;html=1;" edge="1" parent="GUVT5bT9iIzlpzMXZ2RR-26" source="GUVT5bT9iIzlpzMXZ2RR-46" target="GUVT5bT9iIzlpzMXZ2RR-47">
          <mxGeometry relative="1" as="geometry" />
        </mxCell>
        <mxCell id="GUVT5bT9iIzlpzMXZ2RR-46" value="Queued" style="rounded=1;whiteSpace=wrap;html=1;" vertex="1" parent="GUVT5bT9iIzlpzMXZ2RR-26">
          <mxGeometry x="320" y="440" width="120" height="60" as="geometry" />
        </mxCell>
        <mxCell id="GUVT5bT9iIzlpzMXZ2RR-50" value="UploadComplete" style="edgeStyle=orthogonalEdgeStyle;rounded=0;orthogonalLoop=1;jettySize=auto;html=1;entryX=0.5;entryY=0;entryDx=0;entryDy=0;" edge="1" parent="GUVT5bT9iIzlpzMXZ2RR-26" source="GUVT5bT9iIzlpzMXZ2RR-47" target="GUVT5bT9iIzlpzMXZ2RR-53">
          <mxGeometry relative="1" as="geometry">
            <mxPoint x="430" y="630" as="targetPoint" />
          </mxGeometry>
        </mxCell>
        <mxCell id="GUVT5bT9iIzlpzMXZ2RR-71" value="" style="edgeStyle=orthogonalEdgeStyle;rounded=0;orthogonalLoop=1;jettySize=auto;html=1;entryX=0;entryY=0.75;entryDx=0;entryDy=0;" edge="1" parent="GUVT5bT9iIzlpzMXZ2RR-26" source="GUVT5bT9iIzlpzMXZ2RR-47" target="GUVT5bT9iIzlpzMXZ2RR-69">
          <mxGeometry relative="1" as="geometry">
            <mxPoint x="520" y="570" as="targetPoint" />
            <Array as="points">
              <mxPoint x="490" y="570" />
              <mxPoint x="490" y="685" />
            </Array>
          </mxGeometry>
        </mxCell>
        <mxCell id="GUVT5bT9iIzlpzMXZ2RR-77" value="Error" style="edgeLabel;html=1;align=center;verticalAlign=middle;resizable=0;points=[];" vertex="1" connectable="0" parent="GUVT5bT9iIzlpzMXZ2RR-71">
          <mxGeometry x="-0.6702" y="-1" relative="1" as="geometry">
            <mxPoint x="-6" y="-11" as="offset" />
          </mxGeometry>
        </mxCell>
        <mxCell id="GUVT5bT9iIzlpzMXZ2RR-47" value="Uploading" style="rounded=1;whiteSpace=wrap;html=1;" vertex="1" parent="GUVT5bT9iIzlpzMXZ2RR-26">
          <mxGeometry x="320" y="540" width="120" height="60" as="geometry" />
        </mxCell>
        <mxCell id="GUVT5bT9iIzlpzMXZ2RR-51" value="" style="edgeStyle=orthogonalEdgeStyle;rounded=0;orthogonalLoop=1;jettySize=auto;html=1;" edge="1" parent="GUVT5bT9iIzlpzMXZ2RR-26" source="GUVT5bT9iIzlpzMXZ2RR-53" target="GUVT5bT9iIzlpzMXZ2RR-58">
          <mxGeometry relative="1" as="geometry" />
        </mxCell>
        <mxCell id="GUVT5bT9iIzlpzMXZ2RR-52" value="Enqueue" style="edgeLabel;html=1;align=center;verticalAlign=middle;resizable=0;points=[];" vertex="1" connectable="0" parent="GUVT5bT9iIzlpzMXZ2RR-51">
          <mxGeometry x="-0.2903" y="1" relative="1" as="geometry">
            <mxPoint as="offset" />
          </mxGeometry>
        </mxCell>
        <mxCell id="GUVT5bT9iIzlpzMXZ2RR-53" value="ReadyToDownload" style="rounded=1;whiteSpace=wrap;html=1;" vertex="1" parent="GUVT5bT9iIzlpzMXZ2RR-26">
          <mxGeometry x="320.03" y="640" width="120" height="60" as="geometry" />
        </mxCell>
        <mxCell id="GUVT5bT9iIzlpzMXZ2RR-54" value="" style="edgeStyle=orthogonalEdgeStyle;rounded=0;orthogonalLoop=1;jettySize=auto;html=1;" edge="1" parent="GUVT5bT9iIzlpzMXZ2RR-26" source="GUVT5bT9iIzlpzMXZ2RR-58" target="GUVT5bT9iIzlpzMXZ2RR-63">
          <mxGeometry relative="1" as="geometry" />
        </mxCell>
        <mxCell id="GUVT5bT9iIzlpzMXZ2RR-55" value="Download" style="edgeLabel;html=1;align=center;verticalAlign=middle;resizable=0;points=[];" vertex="1" connectable="0" parent="GUVT5bT9iIzlpzMXZ2RR-54">
          <mxGeometry x="0.2722" y="1" relative="1" as="geometry">
            <mxPoint x="-1" y="-11" as="offset" />
          </mxGeometry>
        </mxCell>
        <mxCell id="GUVT5bT9iIzlpzMXZ2RR-58" value="Queued" style="rounded=1;whiteSpace=wrap;html=1;" vertex="1" parent="GUVT5bT9iIzlpzMXZ2RR-26">
          <mxGeometry x="320.03" y="750" width="120" height="60" as="geometry" />
        </mxCell>
        <mxCell id="GUVT5bT9iIzlpzMXZ2RR-59" value="" style="edgeStyle=orthogonalEdgeStyle;rounded=0;orthogonalLoop=1;jettySize=auto;html=1;" edge="1" parent="GUVT5bT9iIzlpzMXZ2RR-26" source="GUVT5bT9iIzlpzMXZ2RR-63" target="GUVT5bT9iIzlpzMXZ2RR-66">
          <mxGeometry relative="1" as="geometry" />
        </mxCell>
        <mxCell id="GUVT5bT9iIzlpzMXZ2RR-60" value="DownloadComplete" style="edgeLabel;html=1;align=center;verticalAlign=middle;resizable=0;points=[];" vertex="1" connectable="0" parent="GUVT5bT9iIzlpzMXZ2RR-59">
          <mxGeometry x="0.2306" y="1" relative="1" as="geometry">
            <mxPoint x="-1" y="-4" as="offset" />
          </mxGeometry>
        </mxCell>
        <mxCell id="GUVT5bT9iIzlpzMXZ2RR-61" style="edgeStyle=orthogonalEdgeStyle;rounded=0;orthogonalLoop=1;jettySize=auto;html=1;exitX=1;exitY=0.5;exitDx=0;exitDy=0;" edge="1" parent="GUVT5bT9iIzlpzMXZ2RR-26" source="GUVT5bT9iIzlpzMXZ2RR-63">
          <mxGeometry relative="1" as="geometry">
            <mxPoint x="480" y="889.9999999999998" as="sourcePoint" />
            <mxPoint x="640" y="700" as="targetPoint" />
          </mxGeometry>
        </mxCell>
        <mxCell id="GUVT5bT9iIzlpzMXZ2RR-62" value="Error" style="edgeLabel;html=1;align=center;verticalAlign=middle;resizable=0;points=[];" vertex="1" connectable="0" parent="GUVT5bT9iIzlpzMXZ2RR-61">
          <mxGeometry x="-0.1522" y="1" relative="1" as="geometry">
            <mxPoint x="-131" y="-9" as="offset" />
          </mxGeometry>
        </mxCell>
        <mxCell id="GUVT5bT9iIzlpzMXZ2RR-63" value="Downloading" style="rounded=1;whiteSpace=wrap;html=1;" vertex="1" parent="GUVT5bT9iIzlpzMXZ2RR-26">
          <mxGeometry x="320" y="850" width="120" height="60" as="geometry" />
        </mxCell>
        <mxCell id="GUVT5bT9iIzlpzMXZ2RR-64" style="edgeStyle=orthogonalEdgeStyle;rounded=0;orthogonalLoop=1;jettySize=auto;html=1;exitX=0;exitY=0.5;exitDx=0;exitDy=0;entryX=0;entryY=0.5;entryDx=0;entryDy=0;" edge="1" parent="GUVT5bT9iIzlpzMXZ2RR-26" source="GUVT5bT9iIzlpzMXZ2RR-66" target="GUVT5bT9iIzlpzMXZ2RR-53">
          <mxGeometry relative="1" as="geometry">
            <mxPoint x="310.03" y="1070" as="sourcePoint" />
            <mxPoint x="310.03" y="650" as="targetPoint" />
            <Array as="points">
              <mxPoint x="270" y="980" />
              <mxPoint x="270" y="670" />
            </Array>
          </mxGeometry>
        </mxCell>
        <mxCell id="GUVT5bT9iIzlpzMXZ2RR-65" value="Delete" style="edgeLabel;html=1;align=center;verticalAlign=middle;resizable=0;points=[];" vertex="1" connectable="0" parent="GUVT5bT9iIzlpzMXZ2RR-64">
          <mxGeometry x="-0.1538" y="2" relative="1" as="geometry">
            <mxPoint x="2" y="-36" as="offset" />
          </mxGeometry>
        </mxCell>
        <mxCell id="GUVT5bT9iIzlpzMXZ2RR-66" value="Completed" style="rounded=1;whiteSpace=wrap;html=1;" vertex="1" parent="GUVT5bT9iIzlpzMXZ2RR-26">
          <mxGeometry x="320.03" y="950" width="120" height="60" as="geometry" />
        </mxCell>
        <mxCell id="GUVT5bT9iIzlpzMXZ2RR-67" style="edgeStyle=orthogonalEdgeStyle;rounded=0;orthogonalLoop=1;jettySize=auto;html=1;entryX=0.833;entryY=0;entryDx=0;entryDy=0;entryPerimeter=0;" edge="1" parent="GUVT5bT9iIzlpzMXZ2RR-26" source="GUVT5bT9iIzlpzMXZ2RR-69" target="GUVT5bT9iIzlpzMXZ2RR-58">
          <mxGeometry relative="1" as="geometry">
            <mxPoint x="500.03" y="700" as="targetPoint" />
            <Array as="points">
              <mxPoint x="600" y="730" />
              <mxPoint x="420" y="730" />
            </Array>
            <mxPoint x="620.03" y="780" as="sourcePoint" />
          </mxGeometry>
        </mxCell>
        <mxCell id="GUVT5bT9iIzlpzMXZ2RR-68" value="TryDownloadAgain" style="edgeLabel;html=1;align=center;verticalAlign=middle;resizable=0;points=[];" vertex="1" connectable="0" parent="GUVT5bT9iIzlpzMXZ2RR-67">
          <mxGeometry x="0.3562" y="1" relative="1" as="geometry">
            <mxPoint x="54" y="-11" as="offset" />
          </mxGeometry>
        </mxCell>
        <mxCell id="GUVT5bT9iIzlpzMXZ2RR-74" style="edgeStyle=orthogonalEdgeStyle;rounded=0;orthogonalLoop=1;jettySize=auto;html=1;" edge="1" parent="GUVT5bT9iIzlpzMXZ2RR-26" source="GUVT5bT9iIzlpzMXZ2RR-69" target="GUVT5bT9iIzlpzMXZ2RR-73">
          <mxGeometry relative="1" as="geometry" />
        </mxCell>
        <mxCell id="GUVT5bT9iIzlpzMXZ2RR-69" value="Error" style="rounded=1;whiteSpace=wrap;html=1;" vertex="1" parent="GUVT5bT9iIzlpzMXZ2RR-26">
          <mxGeometry x="545.03" y="640" width="120" height="60" as="geometry" />
        </mxCell>
        <mxCell id="GUVT5bT9iIzlpzMXZ2RR-75" style="edgeStyle=orthogonalEdgeStyle;rounded=0;orthogonalLoop=1;jettySize=auto;html=1;entryX=0.5;entryY=0;entryDx=0;entryDy=0;" edge="1" parent="GUVT5bT9iIzlpzMXZ2RR-26" source="GUVT5bT9iIzlpzMXZ2RR-73" target="GUVT5bT9iIzlpzMXZ2RR-46">
          <mxGeometry relative="1" as="geometry" />
        </mxCell>
        <mxCell id="GUVT5bT9iIzlpzMXZ2RR-76" value="TryUploadAgain" style="edgeLabel;html=1;align=center;verticalAlign=middle;resizable=0;points=[];" vertex="1" connectable="0" parent="GUVT5bT9iIzlpzMXZ2RR-75">
          <mxGeometry x="-0.5001" y="-2" relative="1" as="geometry">
            <mxPoint x="-11" y="-8" as="offset" />
          </mxGeometry>
        </mxCell>
        <mxCell id="GUVT5bT9iIzlpzMXZ2RR-73" value="Error" style="rounded=1;whiteSpace=wrap;html=1;" vertex="1" parent="GUVT5bT9iIzlpzMXZ2RR-26">
          <mxGeometry x="545.03" y="360" width="120" height="60" as="geometry" />
        </mxCell>
      </root>
    </mxGraphModel>
  </diagram>
</mxfile>
